<svg xmlns="http://www.w3.org/2000/svg" xmlns:xlink="http://www.w3.org/1999/xlink" viewBox="0 0 300 300"><defs><style>.cls-1{stroke-width:1.06px;}.cls-1,.cls-2,.cls-3,.cls-4,.cls-5,.cls-6,.cls-7,.cls-8,.cls-9,.cls-10,.cls-11{fill:none;}.cls-1,.cls-6,.cls-8{stroke:#2b2c52;}.cls-1,.cls-6,.cls-8,.cls-10{stroke-miterlimit:10;}.cls-12{fill:#fff;}.cls-13{fill:#fff8ff;}.cls-2{stroke-width:2.76px;}.cls-2,.cls-3,.cls-4,.cls-5,.cls-7,.cls-11{stroke-linecap:round;stroke-linejoin:round;}.cls-2,.cls-10{stroke:#6c98c7;}.cls-14{fill:#e9018b;}.cls-14,.cls-15,.cls-16,.cls-17{mix-blend-mode:multiply;}.cls-18{fill:#191829;}.cls-3{stroke:#101010;stroke-width:.41px;}.cls-19{isolation:isolate;}.cls-4{stroke:#fff;stroke-width:.96px;}.cls-5{stroke-width:.6px;}.cls-5,.cls-7{stroke:#1d0300;}.cls-20{fill:#1d0300;}.cls-6{stroke-width:2.12px;}.cls-15{fill:#05aced;}.cls-21{fill:#14163c;}.cls-16{fill:#faef04;}.cls-22{fill:#5771a3;}.cls-23{fill:#f8c9bf;}.cls-24{fill:#9097b9;}.cls-7{stroke-width:.55px;}.cls-25{fill:#89bde8;}.cls-26{fill:#f9e2d9;}.cls-8{stroke-width:1.48px;}.cls-27{clip-path:url(#clippath);}.cls-28{fill:#fbffff;}.cls-10{stroke-width:.98px;}.cls-17{fill:#adadad;}.cls-29{fill:#2b2c52;}.cls-30{fill:#3c4167;}.cls-31{fill:#6c98c7;}.cls-32{fill:#0b0b0c;}.cls-11{stroke:#7c7c7c;stroke-width:1.11px;}.cls-33{fill:#070707;}.cls-34{fill:#f7a299;}</style><clipPath id="clippath"><polyline class="cls-9" points="31.84 102.48 43.1 91.76 31.84 91.76 20.57 91.76 31.84 102.48"></polyline></clipPath></defs><g class="cls-19"><g id="Layer_1"><g><g><g><g><circle class="cls-28" cx="223.04" cy="96.94" r="20.3" transform="translate(-20.15 99.35) rotate(-24.06)"></circle><g><path class="cls-31" d="M231.89,103.27h-2.53v-.84h2.53c.23,0,.42-.19,.42-.42v-9.7c0-.23-.19-.42-.42-.42h-17.72c-.23,0-.42,.19-.42,.42v9.7c0,.23,.19,.42,.42,.42h2.53v.84h-2.53c-.7,0-1.27-.57-1.27-1.27v-9.7c0-.7,.57-1.27,1.27-1.27h17.72c.7,0,1.27,.57,1.27,1.27v9.7c0,.7-.57,1.27-1.27,1.27Z"></path><path class="cls-31" d="M229.79,107.07h-13.5v-7.17h13.5v7.17Zm-12.65-.84h11.81v-5.48h-11.81v5.48Z"></path><path class="cls-31" d="M229.79,91.88h-13.5v-5.06h13.5v5.06Zm-12.65-.84h11.81v-3.37h-11.81v3.37Z"></path><rect class="cls-31" x="215.44" y="99.9" width="15.18" height=".84"></rect><rect class="cls-31" x="227.26" y="93.15" width="1.27" height=".84"></rect><rect class="cls-31" x="229.79" y="93.15" width="1.27" height=".84"></rect><rect class="cls-31" x="218.4" y="102.01" width="9.28" height=".84"></rect><rect class="cls-31" x="218.4" y="104.54" width="9.28" height=".84"></rect></g></g><g><circle class="cls-31" cx="248.35" cy="85.15" r="11.71"></circle><g><path class="cls-13" d="M248.78,89.86c-2.84,0-5.14-2.31-5.14-5.14s2.31-5.14,5.14-5.14,5.14,2.31,5.14,5.14-2.31,5.14-5.14,5.14Zm0-9.69c-2.51,0-4.54,2.04-4.54,4.54s2.04,4.54,4.54,4.54,4.54-2.04,4.54-4.54-2.04-4.54-4.54-4.54Z"></path><g><path class="cls-13" d="M248.78,91.31c-.17,0-.3-.13-.3-.3v-12.58c0-.17,.13-.3,.3-.3s.3,.13,.3,.3v12.58c0,.16-.13,.3-.3,.3Z"></path><path class="cls-13" d="M255.07,85.02h-12.58c-.17,0-.3-.13-.3-.3s.13-.3,.3-.3h12.58c.16,0,.3,.13,.3,.3s-.13,.3-.3,.3Z"></path></g></g></g></g><g><path class="cls-23" d="M186.72,105.45h-37.25c-.77,0-1.39-.62-1.39-1.39h0c0-.77,.62-1.39,1.39-1.39h37.25c.77,0,1.39,.62,1.39,1.39h0c0,.77-.62,1.39-1.39,1.39Z"></path><path class="cls-23" d="M279.03,137.57h-18.08c-.77,0-1.39-.62-1.39-1.39h0c0-.77,.62-1.39,1.39-1.39h18.08c.77,0,1.39,.62,1.39,1.39h0c0,.77-.62,1.39-1.39,1.39Z"></path><path class="cls-23" d="M29.5,188.07H15.39c-.77,0-1.39-.62-1.39-1.39h0c0-.77,.62-1.39,1.39-1.39h14.11c.77,0,1.39,.62,1.39,1.39h0c0,.77-.62,1.39-1.39,1.39Z"></path><rect class="cls-31" x="270.6" y="153.27" width="4.31" height="4.18" rx="2.09" ry="2.09"></rect><rect class="cls-31" x="166.6" y="86.92" width="4.31" height="4.18" rx="2.09" ry="2.09"></rect><rect class="cls-31" x="27.79" y="161.36" width="4.31" height="4.18" rx="2.09" ry="2.09"></rect></g><g><g><rect class="cls-31" x="22.77" y="89.37" width="18.13" height="18.27" transform="translate(63.67 197.01) rotate(180)"></rect><polygon class="cls-31" points="40.9 104.69 40.9 111.06 35.48 104.69 40.9 104.69"></polygon></g><g><path class="cls-12" d="M33.3,102.48c0,.81-.66,1.46-1.46,1.46s-1.46-.66-1.46-1.46,.66-1.46,1.46-1.46,1.46,.66,1.46,1.46Z"></path><g class="cls-27"><g><path class="cls-12" d="M31.83,107.47c-2.75,0-4.99-2.24-4.99-4.99s2.24-4.99,4.99-4.99,4.99,2.24,4.99,4.99-2.24,4.99-4.99,4.99Zm0-8.59c-1.99,0-3.6,1.62-3.6,3.6s1.62,3.6,3.6,3.6,3.6-1.62,3.6-3.6-1.62-3.6-3.6-3.6Z"></path><path class="cls-12" d="M31.83,110.76c-4.57,0-8.29-3.72-8.29-8.29s3.72-8.29,8.29-8.29,8.29,3.72,8.29,8.29-3.72,8.29-8.29,8.29Zm0-15.18c-3.8,0-6.9,3.09-6.9,6.9s3.09,6.9,6.9,6.9,6.9-3.09,6.9-6.9-3.09-6.9-6.9-6.9Z"></path></g></g></g></g><g><circle class="cls-28" cx="97.76" cy="86.52" r="16.67"></circle><g><path class="cls-2" d="M104.5,83.88c.3,.79,.46,1.64,.46,2.53,0,3.97-3.22,7.19-7.19,7.19s-7.19-3.22-7.19-7.19,3.22-7.19,7.19-7.19c1.27,0,2.46,.33,3.5,.91"></path><polyline class="cls-2" points="96.67 83.42 99.27 86.08 104.36 80.13"></polyline></g></g></g><g><path class="cls-23" d="M33.67,229.72s2.32-94.09,118.43-94.09,117.08,94.52,117.08,94.52l-235.51-.43Z"></path><g><g><g><g><g><g><rect class="cls-31" x="221.06" y="173.4" width="11.06" height="56.75"></rect><path class="cls-31" d="M218.5,224.19h16.46c3.29,0,5.97,2.67,5.97,5.97h-28.39c0-3.29,2.67-5.97,5.97-5.97Z"></path><rect class="cls-29" x="217.91" y="173.4" width="11.06" height="56.75"></rect><path class="cls-29" d="M215.35,224.19h16.46c3.29,0,5.97,2.67,5.97,5.97h-28.39c0-3.29,2.67-5.97,5.97-5.97Z"></path></g><polygon class="cls-17" points="217.91 173.4 217.91 180.75 232.12 175.95 232.12 173.4 217.91 173.4"></polygon></g><g><g><rect class="cls-31" x="104.59" y="173.4" width="11.06" height="56.75"></rect><path class="cls-31" d="M102.04,224.19h16.46c3.29,0,5.97,2.67,5.97,5.97h-28.39c0-3.29,2.67-5.97,5.97-5.97Z"></path><rect class="cls-29" x="101.44" y="173.4" width="11.06" height="56.75"></rect><path class="cls-29" d="M98.89,224.19h16.46c3.29,0,5.97,2.67,5.97,5.97h-28.39c0-3.29,2.67-5.97,5.97-5.97Z"></path></g><polygon class="cls-17" points="101.44 173.4 101.44 180.75 115.65 175.95 115.65 173.4 101.44 173.4"></polygon></g></g><g><g><path class="cls-29" d="M209.98,128.16h28.84c2.34,0,4.5,1.26,5.65,3.3l8.45,15.18c1.04,1.85-.29,4.14-2.42,4.14h-30.72l-9.8-22.62Z"></path><polygon class="cls-17" points="224.06 128.16 236.77 150.78 226.59 150.78 214.25 128.16 224.06 128.16"></polygon><g><polygon class="cls-31" points="230.41 133.7 231.85 136.22 239.46 136.22 237.98 133.7 230.41 133.7"></polygon><polygon class="cls-26" points="232.3 137.05 232.73 137.81 240.33 137.81 239.87 137.05 232.3 137.05"></polygon><polygon class="cls-26" points="233.07 138.41 233.5 139.17 241.1 139.17 240.64 138.41 233.07 138.41"></polygon><polygon class="cls-26" points="233.71 139.76 234.13 140.52 241.74 140.52 241.27 139.76 233.71 139.76"></polygon><polygon class="cls-26" points="235.62 143.03 236.04 143.78 243.65 143.78 243.19 143.03 235.62 143.03"></polygon><polygon class="cls-26" points="236.39 144.39 236.81 145.14 244.42 145.14 243.96 144.39 236.39 144.39"></polygon><polygon class="cls-31" points="234.45 141.14 235.11 142.31 246.86 142.31 246.15 141.14 234.45 141.14"></polygon><polygon class="cls-31" points="239.46 133.7 243.31 140.37 245.94 140.37 242.04 133.7 239.46 133.7"></polygon><polygon class="cls-31" points="244.42 143.03 245.69 145.14 248.31 145.14 247 143.03 244.42 143.03"></polygon></g></g><g><path class="cls-31" d="M101.6,173.4H237.71v-8.58c0-3.18-.79-6.31-2.3-9.11l-12.71-23.62c-1.3-2.42-3.83-3.93-6.58-3.93H101.6v45.24Z"></path><path class="cls-29" d="M91.21,173.4h33.03v-8.58c0-3.18-.79-6.31-2.3-9.11l-12.78-23.74c-1.26-2.34-3.71-3.81-6.37-3.81h-11.59v45.24Z"></path><g><polyline class="cls-1" points="138.89 149.39 131.26 135.83 203.94 135.83 213.62 152.13"></polyline><line class="cls-6" x1="134.79" y1="142.11" x2="207.73" y2="142.11"></line><polygon class="cls-29" points="137.57 147.04 210.63 147.04 213.62 152.13 138.89 149.39 137.57 147.04"></polygon></g></g></g><g><g><g><rect class="cls-31" x="130.37" y="112.16" width="3.5" height="16.01"></rect><rect class="cls-29" x="121.62" y="112.16" width="8.74" height="16.01"></rect></g><g><rect class="cls-31" x="124.32" y="112.16" width="3.5" height="16.01"></rect><rect class="cls-29" x="115.58" y="112.16" width="8.74" height="16.01"></rect></g><g><rect class="cls-31" x="118.2" y="112.16" width="3.5" height="16.01"></rect><rect class="cls-29" x="109.46" y="112.16" width="8.74" height="16.01"></rect></g><g><rect class="cls-31" x="111.68" y="112.16" width="3.5" height="16.01"></rect><rect class="cls-29" x="102.94" y="112.16" width="8.74" height="16.01"></rect></g><g><path class="cls-28" d="M114.34,114.65c0,.5-.41,.91-.91,.91s-.91-.41-.91-.91,.41-.91,.91-.91,.91,.41,.91,.91Z"></path><path class="cls-28" d="M120.86,114.65c0,.5-.41,.91-.91,.91s-.91-.41-.91-.91,.41-.91,.91-.91,.91,.41,.91,.91Z"></path><path class="cls-28" d="M126.98,114.65c0,.5-.41,.91-.91,.91s-.91-.41-.91-.91,.41-.91,.91-.91,.91,.41,.91,.91Z"></path><circle class="cls-28" cx="132.09" cy="114.65" r=".91"></circle></g></g><rect class="cls-17" x="102.94" y="125.84" width="30.93" height="2.32"></rect></g></g><g><g><path class="cls-12" d="M145.45,206.17h0c0,7.53,6.1,13.63,13.63,13.63h29.89v-13.63h-43.52Z"></path><path class="cls-28" d="M138.89,149.39h69.34s9.66,.77,9.66,13.13v43.65h-72.43v-43.02c0-4.06-1.48-7.97-4.16-11.02l-2.41-2.74Z"></path><g><circle class="cls-15" cx="183.68" cy="174.08" r="11.6"></circle><circle class="cls-14" cx="176.03" cy="187.09" r="11.6"></circle><circle class="cls-16" cx="192.51" cy="187.09" r="11.6"></circle></g></g><g><path class="cls-22" d="M183.88,206.17s-6.41-.56-6.41,6.21-5.5,7.42-5.5,7.42h17.01v-13.63h-5.1Z"></path><path class="cls-25" d="M183.88,206.17h72.89s6.8,.36,6.8,7.83v8.84h-74.59v-9.31s-.04-7.36-5.1-7.36Z"></path><path class="cls-12" d="M280.15,222.84s.9,5.5-8.06,7.24h-70.71l8.6-7.24v-7.48h70.19l-.02,7.48Z"></path><path class="cls-25" d="M188.97,222.84h0c0,4,3.24,7.24,7.24,7.24h6.53c4,0,7.24-3.24,7.24-7.24h-21Z"></path></g></g></g><g><g><g><g><polygon class="cls-33" points="44.01 222.11 50.16 222.11 60.32 227.54 42.85 227.34 44.01 222.11"></polygon><polygon class="cls-12" points="42.79 229.63 42.85 227.34 60.32 227.54 60.26 229.84 42.79 229.63"></polygon><line class="cls-4" x1="54.4" y1="224.11" x2="52.39" y2="224.66"></line><line class="cls-4" x1="52.44" y1="223.1" x2="50.42" y2="223.65"></line></g><polygon class="cls-28" points="51.7 213.45 45.44 213.45 44.01 222.11 50.28 222.11 51.7 213.45"></polygon></g><g><g><polygon class="cls-33" points="63 222.3 69.15 222.3 79.31 227.73 61.84 227.52 63 222.3"></polygon><polygon class="cls-12" points="61.78 229.82 61.84 227.52 79.31 227.73 79.24 230.03 61.78 229.82"></polygon><line class="cls-4" x1="73.39" y1="224.3" x2="71.38" y2="224.85"></line><line class="cls-4" x1="71.42" y1="223.29" x2="69.41" y2="223.84"></line></g><polygon class="cls-28" points="69.16 213.64 62.9 213.64 63 222.3 69.26 222.3 69.16 213.64"></polygon></g><g><path class="cls-21" d="M68.29,148.38s.52,1.11,1.47,11.3c.2,2.09,.32,5.01,.3,7.12l.48,52.32-8.96-.1-1.71-55.26-7.33,55.81-9.34-.34,5.84-69.26,4.22-.73,15.03-.86Z"></path><line class="cls-11" x1="59.87" y1="163.75" x2="63.71" y2="161.98"></line></g></g><g><path class="cls-28" d="M67.77,121.12s5.26,3.14,6.29,11.63l-7.52,4.13,1.23-15.76Z"></path><g><path class="cls-28" d="M57.71,118.46c-2.59,.22-5.15,.79-7.56,1.76-.59,.24-1.17,.5-1.71,.77-1.68,.88-1.18,2.78-.97,4.71l.99,26.19,21.13-.54,.84-24.79c.19-2.7-1.41-5.18-3.88-6.05-2.77-.98-6.15-2.07-7.62-2.16l-1.22,.1Z"></path><line class="cls-10" x1="69.82" y1="135.56" x2="70.34" y2="127.89"></line><path class="cls-34" d="M65.31,120.08s-3.89-1.52-6.37-1.73c0,0-3.39,.14-5.73,.86,0,0,1.29,2.76,7.25,3.21,5.96,.45,4.85-2.35,4.85-2.35Z"></path></g><g><g><path class="cls-32" d="M83.3,132.78l-4.42,20.52c-.15,.71-.78,1.21-1.5,1.19l-16.42-.29c-.96-.02-1.66-.91-1.45-1.84l4.61-20.51c.16-.7,.78-1.19,1.5-1.18l16.22,.29c.95,.02,1.65,.9,1.45,1.83Z"></path><polygon class="cls-32" points="82.85 131.34 83.82 132.35 60.82 154.67 59.78 153.6 82.85 131.34"></polygon><path class="cls-30" d="M84.17,133.67l-4.42,20.52c-.15,.71-.78,1.21-1.5,1.19l-16.42-.29c-.96-.02-1.66-.91-1.45-1.84l4.61-20.51c.16-.7,.78-1.19,1.5-1.18l16.22,.29c.95,.02,1.65,.9,1.45,1.83Z"></path><path class="cls-24" d="M75.14,141.17c.1,.96-.6,1.83-1.56,1.93-.96,.1-1.83-.6-1.93-1.56-.1-.96,.6-1.83,1.56-1.93,.96-.1,1.83,.6,1.93,1.56Z"></path></g><path class="cls-34" d="M84.47,139.75l-1.24,5.01c-.15,.61-.7,1.04-1.33,1.03h0c-1.85-.03-3.23-1.73-2.88-3.55l.32-1.67c.25-1.34,1.38-2.33,2.74-2.42l1-.07c.91-.06,1.62,.78,1.4,1.67Z"></path></g><g><g><polygon class="cls-34" points="36.66 133.32 46.6 148.5 43.92 151.53 32.95 140.38 36.66 133.32"></polygon><path class="cls-34" d="M55.73,149.19l-4.25-2.24,.42-.97c.15-.35,.06-.77-.23-1.01-.3-.25-.72-.26-1.03-.02l-4.19,3.41-2.53,3.17c2.3,2.04,3.8,2.01,4.66,1.62,.1,.03,.2,.07,.3,.1l3.53,1.05c.33,.15,.71,0,.87-.33,.12-.24,.16-.62-.52-.98l.68,.36c.35,.15,.75,0,.91-.35,.15-.31-.03-.72-.43-.99l.52,.21c.38,.17,.82-.02,.96-.44,.12-.36-.06-.75-.39-.93l-.75-.39,.89,.22c.41,.15,.87-.08,1-.52,.12-.38-.08-.79-.43-.98Z"></path><line class="cls-3" x1="54.49" y1="150.57" x2="51.97" y2="149.34"></line><line class="cls-3" x1="53.81" y1="151.96" x2="51.39" y2="150.92"></line><line class="cls-3" x1="52.99" y1="153.09" x2="50.94" y2="152.25"></line></g><g><path class="cls-34" d="M50.6,129.13l-12.64,11.31c-1.18,1.24-3.04,1.43-4.43,.45h0c-1.75-1.23-2.05-3.78-.64-5.41l11.88-12.04c1.42-1.64,3.83-1.84,5.48-.46h0c1.85,1.54,2.01,4.41,.34,6.16Z"></path><g><path class="cls-28" d="M50.88,119.94s-5.08,1.03-11.38,8.85l5.4,7.24,8.22-6.11-2.24-9.98Z"></path><line class="cls-10" x1="47.69" y1="133.95" x2="52.46" y2="130.41"></line></g></g></g></g><g><path class="cls-20" d="M66.27,106.86c.25,1.11,1.35,1.8,2.45,1.55,1.11-.25,1.8-1.35,1.55-2.45-.25-1.11-1.35-1.8-2.45-1.55-1.11,.25-1.8,1.35-1.55,2.45Z"></path><polygon class="cls-34" points="63.12 111.92 62.93 119.99 56.87 119.47 58.36 106.35 63.12 111.92"></polygon><polygon class="cls-20" points="63.01 116.65 58.69 110.89 63.09 112.36 63.01 116.65"></polygon><path class="cls-34" d="M65.96,98.14c2.07,.28,3.08,2.47,3.29,4.44,.24,2.27,.45,5.79-.26,7.51-1.09,2.66-3.41,4.23-6.91,3.28,0,0-4.1-.5-4.69-6.68-.7-7.31,4.16-9.14,8.57-8.55Z"></path><g><path class="cls-20" d="M68.04,105.5c.05,.25,.29,.42,.55,.38,.25-.05,.42-.29,.38-.55s-.29-.42-.55-.38c-.25,.05-.42,.29-.38,.55Z"></path><path class="cls-20" d="M64.08,105.5c.05,.25,.29,.42,.55,.38s.42-.29,.38-.55c-.05-.25-.29-.42-.55-.38-.25,.05-.42,.29-.38,.55Z"></path><path class="cls-5" d="M67.17,106.02l.43,1.56c.04,.14-.06,.29-.2,.32l-.5,.1"></path><path class="cls-18" d="M67.63,102.11s-.18,.56,.51,.67c.53,.09,.86,.13,1.16,.26,.17,.07,.36,.01,.46-.14h0c.08-.12,.08-.28,0-.4-.16-.25-.51-.64-1.15-.75-.82-.15-.98,.36-.98,.36Z"></path><path class="cls-18" d="M65.2,102.13s.21,.56-.68,.66c-.68,.07-1.49,.33-1.87,.45-.22,.07-.47,0-.59-.15h0c-.1-.12-.09-.28,.01-.4,.22-.25,1.07-.84,1.89-.94,1.06-.13,1.24,.38,1.24,.38Z"></path><path class="cls-5" d="M64.68,108.87s.92,.78,2.47,.44"></path></g><path class="cls-18" d="M59.09,107.79l.9-4.52c.2-1.05-.13-1.91-.36-3.19,3.97,.01,8.63-.05,8.63-.41,0,0-1.13-4.51-8.46-3.24-11.03,1.91-5.98,12.2-1.96,14.46l1.24-3.11Z"></path><g><path class="cls-34" d="M55.13,107.26c.27,1.21,1.48,1.97,2.69,1.7,1.21-.27,1.97-1.48,1.7-2.69s-1.48-1.97-2.69-1.7c-1.21,.27-1.97,1.48-1.7,2.69Z"></path><path class="cls-7" d="M56.36,106.03s1.68-.35,1.98,1.49"></path></g><path class="cls-18" d="M59.64,100.08s10.71,1.31,10.56-2.09c-.15-3.41-6.51-4.84-9.31-1.51l-1.25,3.6Z"></path></g></g></g><line class="cls-8" x1="16.57" y1="230.15" x2="286.01" y2="230.15"></line></g></g></g></g></svg>